#Comment line ignore any data following # character 
#Hierarchical Translation and Rotation (.htr) file 
[Header]	
#Header keywords are followed by a single value 
FileType HTR		#Single word string
DataType HTRS		#Translation followed by rotation and scale data
FileVersion 1		#integer
NumSegments 84		#integer
NumFrames 2		#integer
DataFrameRate 30		#integer, data frame rate in this file
EulerRotationOrder ZYX
CalibrationUnits mm
RotationUnits Degrees
GlobalAxisofGravity Y
BoneLengthAxis Y
ScaleFactor 1.00
[SegmentNames&Hierarchy]
#CHILD	PARENT
MASTER GLOBAL
root MASTER
chest root
L_mid_tent01 root
R_mid_tent01 root
spine01 root
Bip01_Neck chest
L_humerus chest
R_humerus chest
weapon_bone chest
Bip01_Head Bip01_Neck
eye_left_bone Bip01_Head
eye_right_bone Bip01_Head
L_forearm L_humerus
L_front_hand L_forearm
L_weapon_bone L_forearm
L_front_hand01_01 L_front_hand
L_front_hand02_01 L_front_hand
L_front_hand03_01 L_front_hand
L_front_hand01_02 L_front_hand01_01
L_front_hand02_02 L_front_hand02_01
L_front_hand03_02 L_front_hand03_01
R_forearm R_humerus
R_front_hand R_forearm
R_weapon_bone R_forearm
R_front_hand01_01 R_front_hand
R_front_hand02_01 R_front_hand
R_front_hand03_01 R_front_hand
R_front_hand01_02 R_front_hand01_01
R_front_hand02_02 R_front_hand02_01
R_front_hand03_02 R_front_hand03_01
null_rope01_connect L_mid_tent01
Rope1_Seg01 null_rope01_connect
Rope1_Seg02 Rope1_Seg01
Rope1_Seg03 Rope1_Seg02
Rope1_Seg04 Rope1_Seg03
Rope1_Seg05 Rope1_Seg04
Rope1_Seg06 Rope1_Seg05
Rope1_Seg07 Rope1_Seg06
Rope1_Seg09 Rope1_Seg07
L_mid_hand01 Rope1_Seg09
L_mid_hand02 Rope1_Seg09
L_mid_hand03 Rope1_Seg09
null_rope02_connect R_mid_tent01
Rope2_Seg01 null_rope02_connect
Rope2_Seg02 Rope2_Seg01
Rope2_Seg03 Rope2_Seg02
Rope2_Seg04 Rope2_Seg03
Rope2_Seg05 Rope2_Seg04
Rope2_Seg06 Rope2_Seg05
Rope2_Seg07 Rope2_Seg06
Rope2_Seg09 Rope2_Seg07
R_mid_hand01 Rope2_Seg09
R_mid_hand02 Rope2_Seg09
R_mid_hand03 Rope2_Seg09
spine02 spine01
spine03 spine02
pelvis spine03
null_rope03_connect pelvis
null_rope04_connect pelvis
Rope3_Seg01 null_rope03_connect
Rope3_Seg02 Rope3_Seg01
Rope3_Seg03 Rope3_Seg02
Rope3_Seg04 Rope3_Seg03
Rope3_Seg05 Rope3_Seg04
Rope3_Seg06 Rope3_Seg05
Rope3_Seg07 Rope3_Seg06
Rope3_Seg08 Rope3_Seg07
Rope3_Seg09 Rope3_Seg08
R_rear_hand01 Rope3_Seg09
R_rear_hand02 Rope3_Seg09
R_rear_hand03 Rope3_Seg09
Rope4_Seg01 null_rope04_connect
Rope4_Seg02 Rope4_Seg01
Rope4_Seg03 Rope4_Seg02
Rope4_Seg04 Rope4_Seg03
Rope4_Seg05 Rope4_Seg04
Rope4_Seg06 Rope4_Seg05
Rope4_Seg07 Rope4_Seg06
Rope4_Seg08 Rope4_Seg07
Rope4_Seg09 Rope4_Seg08
L_rear_hand01 Rope4_Seg09
L_rear_hand02 Rope4_Seg09
L_rear_hand03 Rope4_Seg09
[BasePosition]
#SegmentName Tx, Ty, Tz, Rx, Ry, Rz, BoneLength
MASTER 0.000000 0.000000 0.000000 -90.000000 0.000000 0.000000 10.000000 
root 0.000000 0.000000 0.000000 0.000000 0.000000 0.000000 10.000000 
chest 0.000000 0.000000 0.000000 0.000000 0.000000 0.000000 10.000000 
L_mid_tent01 0.000000 0.000000 0.000000 0.000000 0.000000 0.000000 10.000000 
R_mid_tent01 0.000000 0.000000 0.000000 0.000000 0.000000 0.000000 10.000000 
spine01 0.000000 0.000000 0.000000 0.000000 0.000000 0.000000 10.000000 
Bip01_Neck 0.000000 0.000000 0.000000 0.000000 0.000000 0.000000 10.000000 
L_humerus 0.000000 0.000000 0.000000 0.000000 0.000000 0.000000 10.000000 
R_humerus 0.000000 0.000000 0.000000 0.000000 0.000000 0.000000 10.000000 
weapon_bone 0.000000 0.000000 0.000000 0.000000 0.000000 0.000000 10.000000 
Bip01_Head 0.000000 0.000000 0.000000 0.000000 0.000000 0.000000 10.000000 
eye_left_bone 0.000000 0.000000 0.000000 0.000000 0.000000 0.000000 10.000000 
eye_right_bone 0.000000 0.000000 0.000000 0.000000 0.000000 0.000000 10.000000 
L_forearm 0.000000 0.000000 0.000000 0.000000 0.000000 0.000000 10.000000 
L_front_hand 0.000000 0.000000 0.000000 0.000000 0.000000 0.000000 10.000000 
L_weapon_bone 0.000000 0.000000 0.000000 0.000000 0.000000 0.000000 10.000000 
L_front_hand01_01 0.000000 0.000000 0.000000 0.000000 0.000000 0.000000 10.000000 
L_front_hand02_01 0.000000 0.000000 0.000000 0.000000 0.000000 0.000000 10.000000 
L_front_hand03_01 0.000000 0.000000 0.000000 0.000000 0.000000 0.000000 10.000000 
L_front_hand01_02 0.000000 0.000000 0.000000 0.000000 0.000000 0.000000 10.000000 
L_front_hand02_02 0.000000 0.000000 0.000000 0.000000 0.000000 0.000000 10.000000 
L_front_hand03_02 0.000000 0.000000 0.000000 0.000000 0.000000 0.000000 10.000000 
R_forearm 0.000000 0.000000 0.000000 0.000000 0.000000 0.000000 10.000000 
R_front_hand 0.000000 0.000000 0.000000 0.000000 0.000000 0.000000 10.000000 
R_weapon_bone 0.000000 0.000000 0.000000 0.000000 0.000000 0.000000 10.000000 
R_front_hand01_01 0.000000 0.000000 0.000000 0.000000 0.000000 0.000000 10.000000 
R_front_hand02_01 0.000000 0.000000 0.000000 0.000000 0.000000 0.000000 10.000000 
R_front_hand03_01 0.000000 0.000000 0.000000 0.000000 0.000000 0.000000 10.000000 
R_front_hand01_02 0.000000 0.000000 0.000000 0.000000 0.000000 0.000000 10.000000 
R_front_hand02_02 0.000000 0.000000 0.000000 0.000000 0.000000 0.000000 10.000000 
R_front_hand03_02 0.000000 0.000000 0.000000 0.000000 0.000000 0.000000 10.000000 
null_rope01_connect 0.000000 0.000000 0.000000 0.000000 0.000000 0.000000 10.000000 
Rope1_Seg01 0.000000 0.000000 0.000000 0.000000 0.000000 0.000000 10.000000 
Rope1_Seg02 0.000000 0.000000 0.000000 0.000000 0.000000 0.000000 10.000000 
Rope1_Seg03 0.000000 0.000000 0.000000 0.000000 0.000000 0.000000 10.000000 
Rope1_Seg04 0.000000 0.000000 0.000000 0.000000 0.000000 0.000000 10.000000 
Rope1_Seg05 0.000000 0.000000 0.000000 0.000000 0.000000 0.000000 10.000000 
Rope1_Seg06 0.000000 0.000000 0.000000 0.000000 0.000000 0.000000 10.000000 
Rope1_Seg07 0.000000 0.000000 0.000000 0.000000 0.000000 0.000000 10.000000 
Rope1_Seg09 0.000000 0.000000 0.000000 0.000000 0.000000 0.000000 10.000000 
L_mid_hand01 0.000000 0.000000 0.000000 0.000000 0.000000 0.000000 10.000000 
L_mid_hand02 0.000000 0.000000 0.000000 0.000000 0.000000 0.000000 10.000000 
L_mid_hand03 0.000000 0.000000 0.000000 0.000000 0.000000 0.000000 10.000000 
null_rope02_connect 0.000000 0.000000 0.000000 0.000000 0.000000 0.000000 10.000000 
Rope2_Seg01 0.000000 0.000000 0.000000 0.000000 0.000000 0.000000 10.000000 
Rope2_Seg02 0.000000 0.000000 0.000000 0.000000 0.000000 0.000000 10.000000 
Rope2_Seg03 0.000000 0.000000 0.000000 0.000000 0.000000 0.000000 10.000000 
Rope2_Seg04 0.000000 0.000000 0.000000 0.000000 0.000000 0.000000 10.000000 
Rope2_Seg05 0.000000 0.000000 0.000000 0.000000 0.000000 0.000000 10.000000 
Rope2_Seg06 0.000000 0.000000 0.000000 0.000000 0.000000 0.000000 10.000000 
Rope2_Seg07 0.000000 0.000000 0.000000 0.000000 0.000000 0.000000 10.000000 
Rope2_Seg09 0.000000 0.000000 0.000000 0.000000 0.000000 0.000000 10.000000 
R_mid_hand01 0.000000 0.000000 0.000000 0.000000 0.000000 0.000000 10.000000 
R_mid_hand02 0.000000 0.000000 0.000000 0.000000 0.000000 0.000000 10.000000 
R_mid_hand03 0.000000 0.000000 0.000000 0.000000 0.000000 0.000000 10.000000 
spine02 0.000000 0.000000 0.000000 0.000000 0.000000 0.000000 10.000000 
spine03 0.000000 0.000000 0.000000 0.000000 0.000000 0.000000 10.000000 
pelvis 0.000000 0.000000 0.000000 0.000000 0.000000 0.000000 10.000000 
null_rope03_connect 0.000000 0.000000 0.000000 0.000000 0.000000 0.000000 10.000000 
null_rope04_connect 0.000000 0.000000 0.000000 0.000000 0.000000 0.000000 10.000000 
Rope3_Seg01 0.000000 0.000000 0.000000 0.000000 0.000000 0.000000 10.000000 
Rope3_Seg02 0.000000 0.000000 0.000000 0.000000 0.000000 0.000000 10.000000 
Rope3_Seg03 0.000000 0.000000 0.000000 0.000000 0.000000 0.000000 10.000000 
Rope3_Seg04 0.000000 0.000000 0.000000 0.000000 0.000000 0.000000 10.000000 
Rope3_Seg05 0.000000 0.000000 0.000000 0.000000 0.000000 0.000000 10.000000 
Rope3_Seg06 0.000000 0.000000 0.000000 0.000000 0.000000 0.000000 10.000000 
Rope3_Seg07 0.000000 0.000000 0.000000 0.000000 0.000000 0.000000 10.000000 
Rope3_Seg08 0.000000 0.000000 0.000000 0.000000 0.000000 0.000000 10.000000 
Rope3_Seg09 0.000000 0.000000 0.000000 0.000000 0.000000 0.000000 10.000000 
R_rear_hand01 0.000000 0.000000 0.000000 0.000000 0.000000 0.000000 10.000000 
R_rear_hand02 0.000000 0.000000 0.000000 0.000000 0.000000 0.000000 10.000000 
R_rear_hand03 0.000000 0.000000 0.000000 0.000000 0.000000 0.000000 10.000000 
Rope4_Seg01 0.000000 0.000000 0.000000 0.000000 0.000000 0.000000 10.000000 
Rope4_Seg02 0.000000 0.000000 0.000000 0.000000 0.000000 0.000000 10.000000 
Rope4_Seg03 0.000000 0.000000 0.000000 0.000000 0.000000 0.000000 10.000000 
Rope4_Seg04 0.000000 0.000000 0.000000 0.000000 0.000000 0.000000 10.000000 
Rope4_Seg05 0.000000 0.000000 0.000000 0.000000 0.000000 0.000000 10.000000 
Rope4_Seg06 0.000000 0.000000 0.000000 0.000000 0.000000 0.000000 10.000000 
Rope4_Seg07 0.000000 0.000000 0.000000 0.000000 0.000000 0.000000 10.000000 
Rope4_Seg08 0.000000 0.000000 0.000000 0.000000 0.000000 0.000000 10.000000 
Rope4_Seg09 0.000000 0.000000 0.000000 0.000000 0.000000 0.000000 10.000000 
L_rear_hand01 0.000000 0.000000 0.000000 0.000000 0.000000 0.000000 10.000000 
L_rear_hand02 0.000000 0.000000 0.000000 0.000000 0.000000 0.000000 10.000000 
L_rear_hand03 0.000000 0.000000 0.000000 0.000000 0.000000 0.000000 10.000000 
#Beginning of Data. Separated by tabs
#Fr	Tx	Ty	Tz	Rx	Ry	Rz	SF
[MASTER]
38 -0.000971 6448.687012 1601.846191 0.001660 0.001660 0.001660 6644.657227
39 -0.000985 6540.329590 1566.453857 0.001660 0.001660 0.001660 6725.302246
[root]
38 -28.543232 -69.116684 1487.281006 -91.134407 -34.972965 -89.957848 1489.159668
39 -16.502293 -62.821911 1499.999878 -91.767517 -35.574421 -89.880173 1501.405518
[chest]
38 -84.512650 -34.090519 0.000000 8.779084 -0.659226 175.829910 91.129311
39 -84.512650 -34.090519 0.000000 6.296539 -0.429161 -178.801819 91.129311
[L_mid_tent01]
38 27.299177 22.179510 -249.918701 -17.548391 21.401655 28.080132 252.381729
39 27.299181 22.179522 -249.918701 -18.391485 19.598312 24.956953 252.381729
[R_mid_tent01]
38 23.228794 24.509907 226.238495 -175.099655 -24.532461 43.800987 228.744751
39 23.228794 24.509907 226.238495 -172.782593 -23.400007 39.442337 228.744751
[spine01]
38 -0.361383 -0.195265 0.000000 0.001947 0.001310 22.134998 0.410763
39 -0.361383 -0.195265 0.000000 0.001947 0.001311 22.102238 0.410763
[Bip01_Neck]
38 165.484543 71.581718 0.000119 176.643677 -1.657967 43.431911 180.302734
39 165.484543 71.581718 0.000119 176.643677 -1.657967 43.431911 180.302734
[L_humerus]
38 -13.983130 -135.272980 -120.471481 124.204987 84.083015 -144.825714 181.680161
39 -13.983130 -135.272980 -120.471481 66.286850 86.146538 157.072144 181.680161
[R_humerus]
38 -13.983309 -135.273102 125.287651 175.784485 -81.291161 -80.602005 184.909012
39 -13.983309 -135.273102 125.287651 145.922684 -85.843338 -50.653744 184.909012
[weapon_bone]
38 235.964890 -300.705902 0.000000 0.000000 -89.951546 -128.212341 382.234833
39 235.964890 -300.705902 0.000000 0.000000 -89.951546 -128.212341 382.234833
[Bip01_Head]
38 213.442841 185.719803 11.722315 5.200446 6.151311 -43.834991 283.173279
39 213.443130 185.718933 11.733238 5.200446 6.151311 -43.834991 283.173370
[eye_left_bone]
38 -24.626970 125.451866 -64.772606 0.000000 -90.000000 -99.840431 143.318359
39 -24.626970 125.451866 -64.772606 0.000000 -90.000000 -99.840431 143.318359
[eye_right_bone]
38 -24.626970 125.451866 64.327362 0.000000 -89.965736 80.156380 143.117676
39 -24.626970 125.451866 64.327362 0.000000 -89.965736 80.156380 143.117676
[L_forearm]
38 322.776093 0.000000 -0.000119 0.000354 -0.002320 -107.358124 322.776093
39 322.776093 0.000000 -0.000119 0.000363 -0.002319 -107.806229 322.776093
[L_front_hand]
38 241.149185 -0.042021 -3.300071 149.893951 -1.837326 -27.423065 241.171753
39 241.149185 -0.042021 -3.300071 149.893951 -1.837327 -27.423069 241.171753
[L_weapon_bone]
38 156.183838 0.000000 0.000000 0.000014 0.000007 0.000001 156.183838
39 156.183838 0.000000 0.000000 0.000014 0.000007 0.000001 156.183838
[L_front_hand01_01]
38 86.095154 20.947098 -0.655860 0.266862 -0.536502 11.255440 88.609184
39 86.095154 20.947098 -0.655860 0.190716 -0.567738 19.381754 88.609184
[L_front_hand02_01]
38 86.935165 -11.437475 24.513514 117.401146 -10.507686 -5.750195 91.046425
39 86.935165 -11.437475 24.513514 118.357170 -17.695372 -9.664896 91.046425
[L_front_hand03_01]
38 86.637497 -14.123976 -20.424902 -118.731956 9.298050 -7.733142 90.126129
39 86.637497 -14.123976 -20.424902 -119.638634 16.399151 -11.796636 90.126129
[L_front_hand01_02]
38 71.020905 -0.000179 0.000030 0.000725 0.002233 -54.037331 71.020905
39 71.020905 -0.000179 0.000030 0.000621 0.002264 -59.336552 71.020905
[L_front_hand02_02]
38 71.020927 -0.000119 0.000060 0.000725 0.002233 -54.037331 71.020927
39 71.020927 -0.000119 0.000060 0.000621 0.002264 -59.336552 71.020927
[L_front_hand03_02]
38 71.020905 -0.000060 0.000060 0.000725 0.002233 -54.037331 71.020905
39 71.020905 -0.000060 0.000060 0.000621 0.002264 -59.336552 71.020905
[R_forearm]
38 322.776428 -0.000060 0.000030 0.204218 0.054577 -105.996002 322.776428
39 322.776428 -0.000060 0.000030 0.204011 0.055352 -106.431358 322.776428
[R_front_hand]
38 238.847015 -0.006795 2.210259 -8.879457 -10.642941 -26.315098 238.857239
39 238.847015 -0.006795 2.210259 -8.879457 -10.642941 -26.315098 238.857239
[R_weapon_bone]
38 155.664093 0.002503 -0.000030 0.003487 0.001180 -90.988930 155.664078
39 155.664093 0.002503 -0.000030 0.003487 0.001180 -90.988930 155.664078
[R_front_hand01_01]
38 87.624611 14.231146 22.918642 -117.768211 -13.765176 7.597106 91.683487
39 87.624611 14.231146 22.918642 -119.067368 -21.335157 11.888266 91.683487
[R_front_hand02_01]
38 89.356956 14.367283 -19.491137 119.121628 12.788424 9.940676 92.579636
39 89.356956 14.367283 -19.491137 120.392441 20.256634 14.391665 92.579636
[R_front_hand03_01]
38 87.286232 -22.307278 -0.143439 -0.290822 -0.351372 -15.165916 90.091743
39 87.286232 -22.307278 -0.143439 -0.235379 -0.386460 -23.768930 90.091743
[R_front_hand01_02]
38 71.020905 0.000060 0.000119 0.002301 0.000464 67.213524 71.020905
39 71.020905 0.000060 0.000119 0.002324 0.000326 74.038742 71.020905
[R_front_hand02_02]
38 71.020844 -0.000030 -0.000119 0.002301 0.000464 67.213524 71.020836
39 71.020844 -0.000030 -0.000119 0.002324 0.000326 74.038742 71.020836
[R_front_hand03_02]
38 71.020905 0.000000 0.000030 0.002301 0.000464 67.213524 71.020905
39 71.020905 0.000000 0.000030 0.002324 0.000326 74.038742 71.020905
[null_rope01_connect]
38 328.732483 0.000000 -0.000238 -124.808952 -61.559635 -141.538879 328.732483
39 328.732483 0.000000 -0.000238 -125.411484 -61.807968 -137.004486 328.732483
[Rope1_Seg01]
38 0.000038 -0.000542 0.000018 157.845993 62.105717 -175.231064 0.000544
39 0.000038 -0.000556 0.000015 167.201126 46.490536 -152.657257 0.000557
[Rope1_Seg02]
38 139.999863 -0.000179 0.000000 -4.278343 12.275643 -9.866860 139.999863
39 139.999863 -0.000179 0.000000 -41.801403 22.388243 -14.294010 139.999863
[Rope1_Seg03]
38 139.999924 0.000060 -0.000060 -99.804344 31.685799 -24.039291 139.999924
39 139.999924 0.000060 -0.000060 -99.362968 35.079891 7.574520 139.999924
[Rope1_Seg04]
38 139.999924 -0.000060 -0.000119 -54.593781 14.808863 23.433676 139.999924
39 139.999924 -0.000060 -0.000119 -7.290818 1.256240 6.208988 139.999924
[Rope1_Seg05]
38 139.999832 0.000119 -0.000060 -5.146104 10.872279 -10.491671 139.999832
39 139.999832 0.000119 -0.000060 -5.389129 6.811097 -3.270645 139.999832
[Rope1_Seg06]
38 139.999954 0.000119 -0.000060 -10.189384 5.091075 -2.823390 139.999954
39 139.999954 0.000119 -0.000060 -4.143310 2.416389 0.533023 139.999954
[Rope1_Seg07]
38 139.999985 0.000060 0.000000 -13.026935 3.234778 -0.810930 139.999985
39 139.999985 0.000060 0.000000 -3.058372 1.637478 0.487392 139.999985
[Rope1_Seg09]
38 121.602913 0.000119 -0.000089 -89.793175 -1.359789 0.847147 121.602913
39 121.602913 0.000119 -0.000089 -89.793175 -1.359789 0.847147 121.602913
[L_mid_hand01]
38 103.859421 1.038730 8.195221 130.544373 -67.584534 -38.866943 104.187431
39 103.859421 1.038730 8.195221 130.544373 -67.584534 -38.866943 104.187431
[L_mid_hand02]
38 105.572853 -4.139662 -10.864139 -168.923172 43.409309 -73.498886 106.211075
39 105.572853 -4.139662 -10.864139 -168.923172 43.409309 -73.498886 106.211075
[L_mid_hand03]
38 104.641464 17.579376 -3.913581 -6.012627 17.808174 74.893669 106.179977
39 104.641464 17.579376 -3.913581 -6.012627 17.808174 74.893669 106.179977
[null_rope02_connect]
38 328.732849 0.000179 -0.000119 -109.032097 65.902657 -9.003679 328.732849
39 328.732849 0.000179 -0.000119 -109.191391 66.925018 -13.613480 328.732849
[Rope2_Seg01]
38 0.000072 0.000018 0.000000 -130.624374 44.003460 -30.793085 0.000074
39 0.000073 0.000015 0.000000 -135.213562 28.625778 -38.729866 0.000074
[Rope2_Seg02]
38 139.999741 -0.000060 -0.000119 -27.861198 17.121616 -1.014687 139.999756
39 139.999741 -0.000060 -0.000119 -141.067566 18.861647 -1.826813 139.999756
[Rope2_Seg03]
38 140.000107 0.000030 0.000000 -111.837959 19.481701 2.584714 140.000107
39 140.000107 0.000030 0.000000 -21.824631 -7.518669 12.838179 140.000107
[Rope2_Seg04]
38 139.999802 0.000000 -0.000060 24.690359 -14.700900 -4.768725 139.999802
39 139.999802 0.000000 -0.000060 23.818947 -14.756689 -9.820339 139.999802
[Rope2_Seg05]
38 139.999985 -0.000060 0.000119 22.116266 -26.620253 -9.007392 139.999985
39 139.999985 -0.000060 0.000119 13.619028 -18.406328 -6.786874 139.999985
[Rope2_Seg06]
38 139.999893 -0.000030 -0.000119 2.071583 -15.900400 2.669336 139.999893
39 139.999893 -0.000030 -0.000119 3.001776 -11.073858 -0.344085 139.999893
[Rope2_Seg07]
38 139.999893 0.000060 -0.000060 0.447851 -6.783958 1.416859 139.999893
39 139.999893 0.000060 -0.000060 0.956523 -5.530937 0.118847 139.999893
[Rope2_Seg09]
38 121.338966 0.000089 -0.000060 33.793236 -1.359788 -0.847141 121.338966
39 121.338966 0.000089 -0.000060 33.793236 -1.359788 -0.847141 121.338966
[R_mid_hand01]
38 104.680779 11.144459 -10.335981 -16.212063 45.237247 70.462852 105.778534
39 104.680779 11.144459 -10.335981 -16.212063 45.237247 70.462852 105.778534
[R_mid_hand02]
38 104.070427 2.443552 8.231699 49.067368 -67.749771 39.286453 104.424065
39 104.070427 2.443552 8.231699 49.067368 -67.749771 39.286453 104.424065
[R_mid_hand03]
38 106.028137 -11.221827 -5.996406 -177.101105 15.551026 -76.585571 106.788818
39 106.028137 -11.221827 -5.996406 -177.101105 15.551026 -76.585571 106.788818
[spine02]
38 129.756927 0.001550 0.000119 0.146120 -4.057262 -9.943257 129.756927
39 129.756927 0.001550 0.000119 0.190761 -4.056877 -10.571054 129.756927
[spine03]
38 78.613914 0.081518 -4.899020 1.773067 3.889181 14.621767 78.766457
39 78.613907 0.081511 -4.899021 1.798332 3.879051 15.014317 78.766441
[pelvis]
38 169.435242 0.051022 0.000000 -0.049618 -0.182551 10.342394 169.435257
39 169.435242 0.051022 0.000000 -0.050899 -0.182198 11.147136 169.435257
[null_rope03_connect]
38 -1.257226 -2.466202 137.391083 0.000000 -89.756104 87.845703 137.418976
39 -1.257226 -2.466202 137.391083 -139.775909 -89.246712 -132.311432 137.418976
[null_rope04_connect]
38 -1.259640 -2.480268 -137.844437 0.000000 -89.756104 87.845703 137.872513
39 -1.259640 -2.480268 -137.844437 -139.775909 -89.246712 -132.311432 137.872513
[Rope3_Seg01]
38 0.000009 -0.000542 0.000000 -130.007675 -3.281647 -86.478142 0.000542
39 0.000007 -0.000556 0.000000 -130.021957 -3.193313 -86.450806 0.000556
[Rope3_Seg02]
38 139.999924 -0.000119 0.000060 1.500083 -12.182297 -12.723413 139.999924
39 139.999924 -0.000119 0.000060 0.696975 -8.832641 -8.920412 139.999924
[Rope3_Seg03]
38 139.999924 -0.000119 0.000119 10.271564 -24.243059 -40.215042 139.999924
39 139.999924 -0.000119 0.000119 4.210583 -16.642881 -24.688585 139.999924
[Rope3_Seg04]
38 139.999924 0.000119 0.000000 27.070116 -17.045126 -6.047787 139.999924
39 139.999924 0.000119 0.000000 9.887722 -15.472733 -7.529554 139.999924
[Rope3_Seg05]
38 139.999924 -0.000238 0.000060 7.914551 16.645851 33.575809 139.999924
39 139.999924 -0.000238 0.000060 7.682177 6.602256 28.560446 139.999924
[Rope3_Seg06]
38 139.999893 -0.000119 -0.000060 1.424358 4.255211 9.141412 139.999893
39 139.999893 -0.000119 -0.000060 1.323393 1.581340 7.410155 139.999893
[Rope3_Seg07]
38 139.999771 0.000060 -0.000119 0.854919 2.036743 4.554072 139.999771
39 139.999771 0.000060 -0.000119 0.837538 0.833397 4.014784 139.999771
[Rope3_Seg08]
38 139.999985 -0.000060 0.000000 0.674841 1.154470 2.491550 139.999985
39 139.999985 -0.000060 0.000000 0.669610 0.507825 2.265011 139.999985
[Rope3_Seg09]
38 90.185997 -0.000179 -0.000060 89.793228 -1.359877 -0.847183 90.185997
39 90.185997 -0.000179 -0.000060 89.793228 -1.359877 -0.847183 90.185997
[R_rear_hand01]
38 103.366196 -6.073594 -10.757982 -177.714203 24.565960 -73.910950 104.101845
39 103.366196 -6.073594 -10.757982 -177.714203 24.565960 -73.910950 104.101845
[R_rear_hand02]
38 100.509819 12.039542 -7.992327 -12.874829 36.868488 72.167213 101.543350
39 100.509819 12.039542 -7.992327 -12.874829 36.868488 72.167213 101.543350
[R_rear_hand03]
38 101.539970 5.215704 5.435467 71.484581 -71.816628 21.513813 101.819031
39 101.539970 5.215704 5.435467 71.484581 -71.816628 21.513813 101.819031
[Rope4_Seg01]
38 -0.000010 -0.000533 -0.000018 70.205605 -27.633255 -146.041306 0.000534
39 -0.000010 -0.000549 -0.000015 58.793873 -18.844631 -136.680481 0.000549
[Rope4_Seg02]
38 139.999985 0.000060 0.000119 -3.967278 -0.022239 -4.120620 139.999985
39 139.999985 0.000060 0.000119 -1.317124 1.614489 -1.268316 139.999985
[Rope4_Seg03]
38 139.999924 0.000000 -0.000238 -6.016305 0.278390 -5.675862 139.999924
39 139.999924 0.000000 -0.000238 -0.229442 2.278029 0.566088 139.999924
[Rope4_Seg04]
38 139.999985 0.000000 0.000119 -20.644012 2.720363 -16.622856 139.999985
39 139.999985 0.000000 0.000119 -13.046389 11.630182 -16.213848 139.999985
[Rope4_Seg05]
38 139.999802 -0.000060 -0.000119 -52.860664 25.692059 -51.175648 139.999802
39 139.999802 -0.000060 -0.000119 -25.544973 22.474277 -39.893574 139.999802
[Rope4_Seg06]
38 139.999924 0.000000 0.000060 -3.331542 13.990099 -4.645346 139.999924
39 139.999924 0.000000 0.000060 -2.258200 8.223400 -6.556759 139.999924
[Rope4_Seg07]
38 139.999802 0.000000 0.000000 -0.514658 5.798854 -1.589329 139.999802
39 139.999802 0.000000 0.000000 -0.453013 3.370972 -2.500687 139.999802
[Rope4_Seg08]
38 139.999924 0.000000 0.000119 -1.598490 2.293282 -0.609156 139.999924
39 139.999924 0.000000 0.000119 -1.544948 0.736346 -0.537537 139.999924
[Rope4_Seg09]
38 90.185791 0.000060 0.000060 -135.617828 2.228885 0.850567 90.185791
39 90.185791 0.000060 0.000060 -135.617828 2.228885 0.850567 90.185791
[L_rear_hand01]
38 101.696655 -8.392275 -7.654577 -12.874829 -36.868488 107.832764 102.329041
39 101.696655 -8.392275 -7.654577 -12.874829 -36.868488 107.832764 102.329041
[L_rear_hand02]
38 102.726799 -1.568258 5.773216 71.484581 71.816628 158.486160 102.900848
39 102.726799 -1.568258 5.773216 71.484581 71.816628 158.486160 102.900848
[L_rear_hand03]
38 104.552910 9.721220 -10.420293 -177.714203 -24.565960 -106.089035 105.519653
39 104.552910 9.721220 -10.420293 -177.714203 -24.565960 -106.089035 105.519653
